<svg width="512" height="512" xmlns="http://www.w3.org/2000/svg">

 <g>
  <title>background</title>
  <rect fill="none" id="canvas_background" height="402" width="582" y="-1" x="-1"/>
 </g>
 <g>
  <title>Layer 1</title>
  <path fill="#402e32" id="svg_1" d="m256,80.4a5.15,5.15 0 0 0 5.15,-5.15l0,-38.39a5.15,5.15 0 1 0 -10.3,0l0,38.39a5.16,5.16 0 0 0 5.15,5.15z"/>
  <path fill="#402e32" id="svg_2" d="m196.73,90.3a5.15,5.15 0 1 0 8.39,-6l-22.29,-31.24a5.15,5.15 0 0 0 -8.39,6l22.29,31.24z"/>
  <path fill="#402e32" id="svg_3" d="m132.07,118.16l34.29,17.25a5.22,5.22 0 0 0 2.31,0.55a5.15,5.15 0 0 0 2.33,-9.76l-34.31,-17.2a5.15,5.15 0 1 0 -4.62,9.2l0,-0.04z"/>
  <path fill="#402e32" id="svg_4" d="m308.09,91.5a5.11,5.11 0 0 0 3,1a5.18,5.18 0 0 0 4.2,-2.16l22.27,-31.34a5.15,5.15 0 0 0 -8.39,-6l-22.28,31.31a5.15,5.15 0 0 0 1.2,7.19z"/>
  <path fill="#402e32" id="svg_5" d="m338.73,133.12a5.14,5.14 0 0 0 6.91,2.29l34.3,-17.25a5.15,5.15 0 1 0 -4.63,-9.2l-34.31,17.24a5.15,5.15 0 0 0 -2.27,6.92z"/>
  <path fill="#402e32" id="svg_6" d="m112.8,283.72c0.61,-0.21 60.7,-19.83 102.4,11.62a5.15,5.15 0 1 0 6.21,-8.22c-46.11,-34.77 -109.23,-14.06 -111.89,-13.12a5.15,5.15 0 1 0 3.28,9.76l0,-0.04z"/>
  <path fill="#402e32" id="svg_7" d="m215.2,357.18a5.16,5.16 0 1 0 6.21,-8.23c-46.11,-34.76 -109.23,-14.05 -111.89,-13.15a5.15,5.15 0 1 0 3.28,9.76c0.61,-0.2 60.7,-19.84 102.4,11.62z"/>
  <path fill="#402e32" id="svg_8" d="m289.58,294.33a5.16,5.16 0 0 0 7.22,1c41.71,-31.45 101.79,-11.82 102.4,-11.62a5.15,5.15 0 0 0 3.28,-9.76c-2.66,-0.9 -65.78,-21.62 -111.88,13.16a5.15,5.15 0 0 0 -1.02,7.22z"/>
  <path fill="#402e32" id="svg_9" d="m402.48,335.8c-2.66,-0.9 -65.79,-21.61 -111.88,13.15a5.15,5.15 0 1 0 6.2,8.23c41.71,-31.45 101.79,-11.82 102.4,-11.62a5.15,5.15 0 0 0 3.28,-9.76z"/>
  <path fill="#402e32" id="svg_10" d="m483.16,188.56c-0.6,0 -13.85,-0.71 -30.52,-0.15l0,-16a5.16,5.16 0 0 0 -3.61,-4.92c-3,-0.93 -70.4,-21.8 -132.14,-6.87a62.69,62.69 0 0 0 0.11,-13.12a61.28,61.28 0 0 0 -122.23,6.27a62.71,62.71 0 0 0 0.4,6.87c-61.78,-14.93 -129.25,5.94 -132.17,6.87a5.16,5.16 0 0 0 -3.61,4.92l0,16.14c-18.19,0.69 -32.57,10.77 -33.22,11.23a5.19,5.19 0 0 0 -2.17,4.2l0,254.14a5.15,5.15 0 0 0 7.21,4.72c1.45,-0.64 146.12,-62.5 203.71,15.35a5.15,5.15 0 0 0 4.14,2.08l34,0a5.15,5.15 0 0 0 4.14,-2.08c57.59,-77.85 202.25,-16 203.71,-15.35a5.15,5.15 0 0 0 7.21,-4.72l0,-264.43a5.16,5.16 0 0 0 -4.96,-5.15zm-261.16,-72.8a51,51 0 0 1 84.67,32.76a51.62,51.62 0 0 1 -1.24,17.58a5.06,5.06 0 0 0 -0.17,0.67a50.55,50.55 0 0 1 -10.38,19.92a53.88,53.88 0 0 0 -13.13,34.63l0,12.28l-51.54,0l0,-11.43a52.93,52.93 0 0 0 -12.62,-34.9a50.83,50.83 0 0 1 -10.88,-20.57c0,-0.14 -0.07,-0.29 -0.11,-0.43a50.88,50.88 0 0 1 15.4,-50.51zm-152.33,60.54c15.17,-4.18 75.46,-18.85 127.81,-4.42a61.16,61.16 0 0 0 12.35,22.17a42.62,42.62 0 0 1 10.08,28.12l0,16.58a5.14,5.14 0 0 0 5.15,5.15l61.87,0a5.14,5.14 0 0 0 5.15,-5.15l0,-17.43a43.59,43.59 0 0 1 10.69,-28l0,0a60.9,60.9 0 0 0 11.78,-21.47c52.35,-14.41 112.59,0.25 127.76,4.43l0,231.53c-26.47,-7.12 -123.31,-28.39 -181.16,22.89l0,-163.06l25.1,0a5.15,5.15 0 0 0 0,-10.3l-60.49,0a5.15,5.15 0 1 0 0,10.3l25.09,0l0,163.08c-57.81,-51.29 -154.68,-30 -181.18,-22.91l0,-231.51zm408.07,274.18c-31.01,-12.06 -151.21,-52.48 -207.32,19.52l-28.84,0c-56.1,-72 -176.31,-31.56 -207.32,-19.51l0,-243.63c4.19,-2.46 13.9,-7.38 25.1,-8l0,215.79a5.16,5.16 0 0 0 6.7,4.91c1.26,-0.4 126.92,-39 186.11,26.95a0.12,0.12 0 0 0 0.05,0.05l0.09,0.09a3.24,3.24 0 0 0 0.43,0.4l0.12,0.1a4.87,4.87 0 0 0 1.23,0.7l0.07,0l0.07,0a4.42,4.42 0 0 0 0.81,0.23l0.11,0a6.09,6.09 0 0 0 0.85,0.07a4.57,4.57 0 0 0 0.83,-0.07l0.14,0a5,5 0 0 0 0.76,-0.21l0.17,-0.06a4.84,4.84 0 0 0 0.72,-0.36l0.11,-0.06a5.13,5.13 0 0 0 1.11,-0.93c59.2,-65.94 184.84,-27.35 186.1,-26.95a5.16,5.16 0 0 0 6.7,-4.91l0,-215.88c10.47,-0.36 19.74,-0.21 25.1,-0.05l0,251.81z"/>
 </g>
</svg>