<svg width="14.442" height="21.407" xmlns="http://www.w3.org/2000/svg">

 <g>
  <title>background</title>
  <rect fill="none" id="canvas_background" height="402" width="582" y="-1" x="-1"/>
 </g>
 <g>
  <title>Layer 1</title>
  <path id="svg_2" fill="#402e32" d="m12.167,10.778c-0.083,-1.13 -0.543,-2.143 -1.243,-2.929c-1.118,-1.26 -1.579,-2.568 -1.579,-4.945c-0.677,0.771 -0.938,1.495 -1.163,2.229c0.031,1.098 0.116,2.197 0.345,3.271c0.149,0.696 0.327,1.386 0.572,2.053c0.247,0.676 0.631,1.347 0.759,2.061c0.24,1.343 -0.36,2.374 -1.091,3.366c0.204,-0.067 0.393,-0.149 0.558,-0.249c1.205,-0.722 3.001,-2.742 2.842,-4.857z"/>
  <path id="svg_3" fill="#402e32" d="m8.212,16.019c0.305,-0.392 0.603,-0.788 0.857,-1.213c0.767,-1.288 0.41,-2.332 -0.101,-3.645c-0.811,-2.086 -1.101,-4.217 -1.163,-6.421c-0.352,-1.727 -1.026,-3.327 -1.957,-4.74c0.064,0.331 0.108,1.074 0.136,1.416c0.161,2.172 -0.265,3.72 -1.663,5.619c0.603,1.927 1.624,3.528 2.076,5.519c0.269,1.185 0.327,2.354 0.243,3.519c0.524,0.055 1.072,0.037 1.572,-0.054z"/>
  <path id="svg_4" fill="#402e32" d="m5.885,12.071c-0.5,-1.666 -2.238,-5.45 -2.782,-7.083c0,1.3 -0.131,2.388 -0.257,2.911c-0.301,1.255 -0.581,2.558 -0.581,3.619c0,1.844 1.74,3.485 2.819,4.104c0.327,0.188 0.745,0.321 1.198,0.4c0.094,-1.318 -0.001,-2.636 -0.397,-3.951z"/>
  <polygon id="svg_5" fill="#402e32" points="13.828,21.407 13.647,21.354 0.182,17.5 0,17.449 0.052,17.267 0.563,15.483 0.614,15.302    0.795,15.354 14.262,19.207 14.442,19.26 14.39,19.44 13.88,21.226  "/>
  <polygon id="svg_6" fill="#402e32" points="13.699,15.534 7.905,17.193 11.279,18.158 14.209,17.318  "/>
  <polygon id="svg_7" fill="#402e32" points="0.233,19.389 0.744,21.173 6.538,19.515 3.164,18.55  "/>
 </g>
</svg>