<svg width="256" height="256" xmlns="http://www.w3.org/2000/svg">

 <g>
  <title>background</title>
  <rect fill="none" id="canvas_background" height="402" width="582" y="-1" x="-1"/>
 </g>
 <g>
  <title>Layer 1</title>
  <path fill="#402e32" id="svg_3" d="m188.9,186.1c-2.7,0 -4.9,2.2 -4.9,4.9l0,51l-17.9,0l0,-42.3c0,-2.7 -2.2,-4.9 -4.9,-4.9s-4.9,2.2 -4.9,4.9l0,47.2c0,2.7 2.2,4.9 4.9,4.9l27.6,0c2.7,0 4.9,-2.2 4.9,-4.9l0,-55.8c0,-2.8 -2.2,-5 -4.8,-5z"/>
  <path fill="#402e32" id="svg_4" d="m233.7,159.4c-2.7,0 -4.9,2.2 -4.9,4.9l0,77.7l-17.8,0l0,-60.5c0,-2.7 -2.2,-4.9 -4.9,-4.9s-4.9,2.2 -4.9,4.9l0,65.4c0,2.7 2.2,4.9 4.9,4.9l27.6,0c2.7,0 4.9,-2.2 4.9,-4.9l0,-82.5c0,-2.9 -2.2,-5 -4.9,-5z"/>
  <path fill="#402e32" id="svg_5" d="m240.1,105.7c-0.1,-1.7 -1.1,-3.3 -2.7,-4c-1.5,-0.8 -3.4,-0.6 -4.8,0.3l-31.7,21.1c-1.4,1 -2.3,2.6 -2.1,4.4c0.1,1.7 1.1,3.3 2.7,4l12.3,6.1c-15.5,31.3 -62.6,43.4 -100.7,38.7c-2.6,-0.3 -5.1,1.6 -5.4,4.2c-0.3,2.7 1.6,5.1 4.2,5.4c5.9,0.7 11.9,1.1 18,1.1c37.9,0 77.5,-14.3 92.6,-45.1l13.1,6.5c0.7,0.3 1.4,0.5 2.1,0.5c0.9,0 1.9,-0.3 2.7,-0.8c1.4,-1 2.3,-2.6 2.1,-4.4l-2.4,-38zm-18.2,25.1l0,0l0,0l-8.7,-4.3l17.7,-11.8l1.4,21.3l-10.4,-5.2z"/>
  <path fill="#402e32" id="svg_6" d="m144,197.3c-2.7,0 -4.9,2.2 -4.9,4.9l0,39.8l-17.9,0l0,-39.7c0,-2.7 -2.2,-4.9 -4.9,-4.9c-2.7,0 -4.9,2.2 -4.9,4.9l0,44.5c0,2.7 2.2,4.9 4.9,4.9l27.7,0c2.7,0 4.9,-2.2 4.9,-4.9l0,-44.6c0,-2.7 -2.2,-4.9 -4.9,-4.9z"/>
  <path fill="#402e32" id="svg_7" d="m63.1,63.3c16.2,0 29.4,-13.2 29.4,-29.4s-13.2,-29.5 -29.4,-29.5s-29.4,13.2 -29.4,29.4s13.2,29.5 29.4,29.5zm0,-49.2c10.9,0 19.7,8.8 19.7,19.7s-8.8,19.8 -19.7,19.8s-19.7,-8.8 -19.7,-19.7s8.8,-19.8 19.7,-19.8z"/>
  <path fill="#402e32" id="svg_8" d="m98.9,100.2c-2.7,-0.2 -5,1.8 -5.2,4.5l-4.6,66.6c0,0.2 -0.1,0.4 -0.1,0.6l-4.2,64.8c-0.2,2.9 -2.6,5.2 -5.6,5.2l-32.2,0c-2.9,0 -5.4,-2.3 -5.6,-5.2l-4.2,-64.8c-0.1,-2 -1.5,-3.7 -3.4,-4.3c-6.3,-1.9 -6.3,-1.9 -6.8,-8.8l-3.9,-68.8l0,-0.8c0,0 0.1,0 0.1,0c5.7,-1.7 15.6,-4.8 20.3,-6.4l16.3,15.2c1.9,1.8 4.8,1.7 6.6,0l16.4,-15.4l47.8,10.8c0.7,0.2 1.4,0.2 2,0l44.9,-9.2c2.6,-0.5 4.3,-3.1 3.8,-5.7c-0.5,-2.6 -3.1,-4.3 -5.7,-3.8l-43.9,9l-49.2,-11.1c-1.6,-0.4 -3.2,0.1 -4.4,1.2l-14.9,14l-15,-14c-1.3,-1.2 -3.1,-1.6 -4.8,-1.1c0,0 -15.2,4.9 -22.9,7.2c-4.4,1.4 -7,4.8 -7,9.4c0,0.4 0,1.2 0,1.2l3.8,67.8l0.1,1.2c0.7,10.3 2.4,13.4 10.4,16.3l4,61.5c0.5,8 7.2,14.3 15.3,14.3l32.2,0c8,0 14.7,-6.3 15.2,-14.3l4.2,-64.3c0,-0.2 0.1,-0.3 0.1,-0.5l4.6,-67.2c0.2,-2.6 -1.9,-4.9 -4.5,-5.1z"/>
 </g>
</svg>