<svg width="32" height="32" xmlns="http://www.w3.org/2000/svg">

 <g>
  <title>background</title>
  <rect fill="none" id="canvas_background" height="402" width="582" y="-1" x="-1"/>
 </g>
 <g>
  <title>Layer 1</title>
  <path fill="#402e32" id="svg_1" d="m29.70703,6.29297l-4,-4c-0.01453,-0.01453 -0.03522,-0.02033 -0.05054,-0.034c-0.06701,-0.05939 -0.13989,-0.10846 -0.22015,-0.14795c-0.04077,-0.02105 -0.07831,-0.04077 -0.1214,-0.05566c-0.10046,-0.03363 -0.20544,-0.05536 -0.31494,-0.05536l-18,0c-0.10931,0 -0.21405,0.02161 -0.31433,0.05511c-0.04431,0.01532 -0.08344,0.03553 -0.12518,0.05738c-0.0788,0.03906 -0.15033,0.08764 -0.21631,0.14593c-0.01557,0.01392 -0.03644,0.01978 -0.05121,0.03455l-4,4c-0.37061,0.37012 -0.39209,0.96387 -0.04981,1.36035l8.70588,10.08661l-5.70588,6.60675c-0.34228,0.39648 -0.3208,0.99023 0.04981,1.36035l4,4c0.18799,0.1875 0.44238,0.29297 0.70703,0.29297c0.01221,0 0.02441,0 0.03662,-0.00098c0.27783,-0.00976 0.53858,-0.13476 0.72022,-0.3457l5.2442,-6.07227l5.24212,6.07227c0.18164,0.21094 0.44239,0.33594 0.72022,0.3457c0.01221,0.00098 0.02441,0.00098 0.03662,0.00098c0.26465,0 0.51904,-0.10547 0.70703,-0.29297l4,-4c0.37061,-0.37012 0.39209,-0.96387 0.04981,-1.36035l-5.70862,-6.60974l8.70862,-10.08362c0.34228,-0.39648 0.3208,-0.99023 -0.04981,-1.36035zm-6.89258,-2.29297l-2.59179,3l-8.44532,0l-2.59179,-3l13.6289,0zm-15.86816,0.46777l7.73242,8.95215l-2.40869,2.79004l-7.90576,-9.16016l2.58203,-2.58203zm6.55719,4.53223l4.99365,0l-2.4967,2.89087l-2.49695,-2.89087zm6.22552,10.26953l4.90674,5.68067l-2.58203,2.58203l-4.73151,-5.48096l0.4076,-0.47186l1.9992,-2.30988zm-3.30218,0.75891l-1.18317,1.36707c-0.00244,0.00281 -0.00305,0.00647 -0.00549,0.00934l-5.29187,6.12738l-2.58203,-2.58203l5.66253,-6.55658l0.00007,-0.00007l0.04895,-0.0567l11.9779,-13.86908l2.58203,2.58203l-11.20892,12.97864z"/>
 </g>
</svg>