<svg width="512" height="512" xmlns="http://www.w3.org/2000/svg">

 <g>
  <title>background</title>
  <rect fill="none" id="canvas_background" height="402" width="582" y="-1" x="-1"/>
 </g>
 <g>
  <title>Layer 1</title>
  <path fill="#402e32" id="svg_2" fill-rule="evenodd" d="m263.648,90.362c0,-5.646 -4.593,-10.239 -10.239,-10.239l-140.368,0c-5.646,0 -10.24,4.594 -10.24,10.239l0,198.827c0,5.646 4.594,10.24 10.24,10.24l92.583,0l0,-121.484c0,-10.119 8.203,-18.321 18.322,-18.321l39.703,0l0,-69.262l-0.001,0z" clip-rule="evenodd"/>
  <path fill="#402e32" id="svg_3" fill-rule="evenodd" d="m95.9,289.189l0,-198.827c0,-9.451 7.689,-17.14 17.141,-17.14l140.369,0c9.451,0 17.14,7.689 17.14,17.14l0,69.262l16.431,0l0,-95.675c0,-7.561 -6.129,-13.69 -13.69,-13.69l-182.333,0c-7.561,0 -13.69,6.129 -13.69,13.69l0,255.414c0,7.561 6.129,13.69 13.69,13.69l114.666,0l0,-26.723l-92.583,0c-9.452,0 -17.141,-7.689 -17.141,-17.141z" clip-rule="evenodd"/>
  <path fill="#402e32" id="svg_4" fill-rule="evenodd" d="m421.042,178.946l-182.332,0c-7.561,0 -13.69,6.129 -13.69,13.69l0,255.414c0,7.561 6.129,13.689 13.69,13.689l182.332,0c7.562,0 13.69,-6.129 13.69,-13.689l0,-255.413c0,-7.561 -6.128,-13.691 -13.69,-13.691zm3.69,269.105c0,2.035 -1.656,3.689 -3.69,3.689l-182.332,0c-2.035,0 -3.69,-1.654 -3.69,-3.689l0,-255.414c0,-2.035 1.656,-3.69 3.69,-3.69l182.332,0c2.034,0 3.69,1.655 3.69,3.69l0,255.414z" clip-rule="evenodd"/>
  <path fill="#402e32" id="svg_5" fill-rule="evenodd" d="m331.492,258.82c-14.23,21.914 -32.082,42.252 -52.422,61.5c22.039,18.707 39.531,39.185 52.422,61.471c13.127,-23.889 30.19,-44.711 52.422,-61.471c-21.887,-20.518 -39.627,-41.023 -52.422,-61.5z" clip-rule="evenodd"/>
 </g>
</svg>