<svg width="100" height="100" xmlns="http://www.w3.org/2000/svg">

 <g>
  <title>background</title>
  <rect fill="none" id="canvas_background" height="402" width="582" y="-1" x="-1"/>
 </g>
 <g>
  <title>Layer 1</title>
  <path fill="#402e32" id="svg_1" d="m61.6,57.6c1.9,-1.9 3.4,-4.4 4.2,-7c0.2,-0.8 -0.2,-1.6 -1,-1.9c-0.8,-0.2 -1.6,0.2 -1.9,1c-0.6,2.1 -1.8,4.1 -3.4,5.7c-2.5,2.5 -5.9,4 -9.5,4s-7,-1.4 -9.5,-4c-4.4,-4.4 -5.2,-11.1 -2.1,-16.4c0.4,-0.7 0.2,-1.6 -0.5,-2.1c-0.7,-0.4 -1.6,-0.2 -2.1,0.5c-3.8,6.5 -2.8,14.7 2.5,20.1c3.1,3.1 7.3,4.8 11.7,4.8s8.4,-1.5 11.6,-4.7z"/>
  <path fill="#402e32" id="svg_2" d="m45,33.4c5,-1.9 10.6,-0.7 14.4,3.1c1.3,1.3 2.3,2.8 3,4.5c0.2,0.6 0.8,0.9 1.4,0.9c0.2,0 0.4,0 0.6,-0.1c0.8,-0.3 1.1,-1.2 0.8,-1.9c-0.6,-1.6 -1.5,-3.1 -2.6,-4.4l7,-7l0,3.4c0,0.8 0.7,1.5 1.5,1.5s1.5,-0.7 1.5,-1.5l0,-7.1c0,-0.2 0,-0.4 -0.1,-0.5c0,0 0,0 0,0c-0.2,-0.4 -0.4,-0.7 -0.8,-0.8c0,0 0,0 0,0c-0.2,-0.1 -0.4,-0.1 -0.5,-0.1l-7.2,0c-0.8,0 -1.5,0.7 -1.5,1.5s0.7,1.5 1.5,1.5l3.5,0l-7,7c-4.6,-3.8 -10.9,-4.9 -16.5,-2.7c-0.8,0.3 -1.2,1.2 -0.9,1.9c0.3,0.7 1.2,1.1 1.9,0.8z"/>
  <path fill="#402e32" id="svg_3" d="m86.5,38.5c0,0 0,0 0,0c-0.2,-0.4 -0.5,-0.7 -0.8,-0.8c0,0 0,0 0,0c-0.2,-0.1 -0.4,-0.1 -0.5,-0.1l-7.2,0c-0.8,0 -1.5,0.7 -1.5,1.5s0.7,1.5 1.5,1.5l3.5,0l-7,7c-3,-2.5 -6.7,-3.8 -10.6,-3.8c-4.4,0 -8.6,1.7 -11.7,4.8c-1.9,1.9 -3.4,4.4 -4.2,7c-0.2,0.8 0.2,1.6 1,1.9c0.8,0.2 1.6,-0.2 1.9,-1c0.6,-2.1 1.8,-4.1 3.4,-5.7c2.5,-2.5 5.9,-4 9.5,-4s7,1.4 9.5,4c5.3,5.3 5.3,13.8 0,19.1c-2.5,2.5 -5.9,4 -9.5,4s-7,-1.4 -9.5,-4c-1.3,-1.3 -2.3,-2.8 -3,-4.5c-0.3,-0.8 -1.2,-1.1 -1.9,-0.8c-0.8,0.3 -1.1,1.2 -0.8,1.9c0.8,2.1 2.1,3.9 3.7,5.5c3.1,3.1 7.3,4.8 11.7,4.8s8.6,-1.7 11.7,-4.8c6.1,-6.1 6.4,-15.7 1,-22.2l7,-7l0,3.4c0,0.8 0.7,1.5 1.5,1.5s1.5,-0.7 1.5,-1.5l0,-7.2c-0.1,-0.2 -0.1,-0.3 -0.2,-0.5z"/>
  <path fill="#402e32" id="svg_4" d="m35.2,57.9c-1.6,0.7 -3.4,1.1 -5.2,1.1c-7.4,0 -13.5,-6.1 -13.5,-13.5s6,-13.5 13.5,-13.5s13.5,6.1 13.5,13.5c0,2.3 -0.6,4.6 -1.7,6.5c-0.4,0.7 -0.1,1.6 0.6,2c0.7,0.4 1.6,0.1 2,-0.6c1.4,-2.4 2.1,-5.2 2.1,-8c0,-9 -7.4,-16.4 -16.5,-16.4s-16.5,7.4 -16.5,16.5c0,8.6 6.6,15.7 15,16.4l0,7.2l-3.5,0c-0.8,0 -1.5,0.7 -1.5,1.5s0.7,1.5 1.5,1.5l3.5,0l0,3.4c0,0.8 0.7,1.5 1.5,1.5s1.5,-0.7 1.5,-1.5l0,-3.4l3.5,0c0.8,0 1.5,-0.7 1.5,-1.5s-0.7,-1.5 -1.5,-1.5l-3.5,0l0,-7.2c1.7,-0.2 3.3,-0.6 4.9,-1.2c0.8,-0.3 1.1,-1.2 0.8,-2c-0.3,-0.7 -1.2,-1.1 -2,-0.8z"/>
 </g>
</svg>