<svg width="512" height="512" xmlns="http://www.w3.org/2000/svg">

 <g>
  <title>background</title>
  <rect fill="none" id="canvas_background" height="402" width="582" y="-1" x="-1"/>
 </g>
 <g>
  <title>Layer 1</title>
  <path fill="#402e32" id="svg_1" d="m408.6944,202.4629s-7.2881,-11.5918 -7.9492,-12.6006c-24.4615,-37.272 -63.9436,-63.7852 -108.58,-73.0278a62.6856,62.6856 0 0 0 21.4778,-47.6187c0,-33.875 -26.1055,-61.4336 -58.1933,-61.4336s-58.1934,27.5586 -58.1934,61.4336a62.6784,62.6784 0 0 0 21.5576,47.6851c-43.4624,9.2666 -80.8608,34.0117 -105.4951,69.8872c-1.37,1.9951 -10.0127,15.6758 -10.0127,15.6758a70.13,70.13 0 0 0 7.2412,83.834l51.0337,56.72l-47.0038,140.4557a15.7483,15.7483 0 0 0 14.9346,20.7442l50.6855,0a15.6521,15.6521 0 0 0 15.0166,-11.0088l50.915,-157.3223a10.3528,10.3528 0 0 1 9.834,-7.1806l0.0362,0a10.3437,10.3437 0 0 1 9.873,7.1816l50.8916,157.2523a15.6741,15.6741 0 0 0 15.0391,11.0782l50.6855,0a15.7472,15.7472 0 0 0 14.9326,-20.7451l-47.0017,-140.4555l51.033,-56.7188a70.1319,70.1319 0 0 0 7.2422,-83.8359zm-199.4385,-133.2471c0,-27.2578 20.7227,-49.4336 46.1934,-49.4336s46.1933,22.1758 46.1933,49.4336s-20.7226,49.4326 -46.1933,49.4326s-46.1934,-22.1757 -46.1934,-49.4326zm136.7876,260.7256l-6.1694,-18.4355a90.1364,90.1364 0 0 1 -4.6661,-28.3965l-0.0029,-0.8985l23.041,-30.3828a20.0384,20.0384 0 0 0 -0.1631,-24.4l-16.3281,-20.9453a10.48,10.48 0 0 0 -18.7451,6.4717l0.1885,66.7217a6.0734,6.0734 0 0 0 0.0029,1.1465l0.0068,2.32a102.09,102.09 0 0 0 5.2872,32.1719l57.5468,171.9666a3.7482,3.7482 0 0 1 -3.5537,4.9366l-50.6855,0a3.7516,3.7516 0 0 1 -3.6,-2.7041l-50.9147,-157.3213a22.304,22.304 0 0 0 -21.289,-15.4863l-0.0782,0a22.33,22.33 0 0 0 -21.21,15.4863l-50.9345,157.3887a3.7316,3.7316 0 0 1 -3.5791,2.6367l-50.6855,0a3.7493,3.7493 0 0 1 -3.5547,-4.9366l57.5488,-171.9677a102.1357,102.1357 0 0 0 5.2861,-32.1709l0.0069,-2.33a6.0352,6.0352 0 0 0 0.0029,-1.127l0.1875,-66.73a10.48,10.48 0 0 0 -18.7451,-6.4727l-16.3281,20.9453a20.0371,20.0371 0 0 0 -0.1622,24.4l23.0411,30.3838l-0.003,0.8975a90.1606,90.1606 0 0 1 -4.666,28.3965l-6.17,18.4365l-46.4895,-51.67a58.0842,58.0842 0 0 1 -5.9961,-69.4317s8.4629,-13.4 9.74,-15.26c23.2861,-33.9131 58.8857,-57.1377 100.24,-65.3975l10.179,-2.0322a55.18,55.18 0 0 0 43.6479,-0.0044l10.4027,2.0133c42.3809,8.2031 79.9346,33.0918 103.0323,68.2861c0.6181,0.94 7.8183,12.3945 7.8183,12.3945a58.0845,58.0845 0 0 1 -5.998,69.4317l-46.4891,51.6691zm-10.8935,-67.5166l-0.127,-45.0605l13.5967,17.4414a8.0255,8.0255 0 0 1 0.0644,9.7724l-13.5341,17.8467zm-144.7648,-17.8457l-13.5351,-17.8487a8.0256,8.0256 0 0 1 0.0654,-9.7724l13.5957,-17.44l-0.126,45.0611z"/>
  <path fill="#402e32" id="svg_2" d="m347.74,101.1738l14.1064,0l0,14.1062a6,6 0 1 0 12,0l0,-14.1062l14.1055,0a6,6 0 0 0 0,-12l-14.1052,0l0,-14.1054a6,6 0 0 0 -12,0l0,14.1054l-14.1067,0a6,6 0 0 0 0,12z"/>
  <path fill="#402e32" id="svg_3" d="m276.4864,174.9648a31.7762,31.7762 0 0 0 -21.0274,7.9776a31.7362,31.7362 0 0 0 -52.7744,24.1738a46.6943,46.6943 0 0 0 18.4248,37.044l25.7422,19.4746a14.31,14.31 0 0 0 17.1973,-0.001l25.74,-19.4736a46.6943,46.6943 0 0 0 18.4248,-37.044l0,-0.4228a31.7643,31.7643 0 0 0 -31.7273,-31.7286z"/>
 </g>
</svg>